<svg width="8" height="10" viewBox="0 0 8 10" fill="none" xmlns="http://www.w3.org/2000/svg">
    <g opacity="0.4">
        <path fill-rule="evenodd" clip-rule="evenodd" d="M3.53905 9.7465C3.70131 9.91016 3.91557 10 4.14526 10C4.37437 10 4.58977 9.91016 4.7509 9.7465L7.40599 6.98723C7.62939 6.7612 7.62939 6.39555 7.40599 6.16952C7.18316 5.94349 6.82149 5.94349 6.59809 6.16952L4.14526 8.72451L1.69185 6.16952C1.46845 5.94349 1.10735 5.94349 0.883951 6.16952C0.66055 6.39555 0.66055 6.7612 0.883951 6.98723L3.53905 9.7465Z" fill="#3EB57C"/>
    </g>
    <path fill-rule="evenodd" clip-rule="evenodd" d="M4.75017 0.253496C4.5879 0.0898395 4.37364 2.7968e-07 4.14396 2.9976e-07C3.91484 3.1979e-07 3.69944 0.0898396 3.53832 0.253496L0.883222 3.01277C0.659821 3.2388 0.659821 3.60445 0.883222 3.83048C1.10605 4.05651 1.46772 4.05651 1.69112 3.83048L4.14396 1.27549L6.59737 3.83048C6.82077 4.05651 7.18186 4.05651 7.40526 3.83048C7.62867 3.60445 7.62867 3.2388 7.40526 3.01277L4.75017 0.253496Z" fill="#bebebe"/>
</svg>
